<svg width="24" height="24" viewBox="0 0 24 24" fill="none" xmlns="http://www.w3.org/2000/svg">
<g clip-path="url(#clip0_2242_311)">
<mask id="mask0_2242_311" style="mask-type:luminance" maskUnits="userSpaceOnUse" x="0" y="0" width="24" height="24">
<path d="M0 0H24V24H0V0Z" fill="white"/>
</mask>
<g mask="url(#mask0_2242_311)">
<path fill-rule="evenodd" clip-rule="evenodd" d="M1 16C1.55228 16 2 16.4477 2 17V19C2 20.6477 3.35228 22 5 22H19C20.6477 22 22 20.6477 22 19V17C22 16.4477 22.4477 16 23 16C23.5523 16 24 16.4477 24 17V19C24 21.7523 21.7523 24 19 24H5C2.24772 24 0 21.7523 0 19V17C0 16.4477 0.447715 16 1 16Z" fill="white"/>
<path fill-rule="evenodd" clip-rule="evenodd" d="M12 0C12.5523 0 13 0.447715 13 1V17C13 17.5523 12.5523 18 12 18C11.4477 18 11 17.5523 11 17V1C11 0.447715 11.4477 0 12 0Z" fill="white"/>
<path fill-rule="evenodd" clip-rule="evenodd" d="M6.29289 11.2929C6.68342 10.9024 7.31658 10.9024 7.70711 11.2929L12 15.5858L16.2929 11.2929C16.6834 10.9024 17.3166 10.9024 17.7071 11.2929C18.0976 11.6834 18.0976 12.3166 17.7071 12.7071L12.7071 17.7071C12.3166 18.0976 11.6834 18.0976 11.2929 17.7071L6.29289 12.7071C5.90237 12.3166 5.90237 11.6834 6.29289 11.2929Z" fill="white"/>
</g>
</g>
<defs>
<clipPath id="clip0_2242_311">
<rect width="24" height="24" fill="white"/>
</clipPath>
</defs>
</svg>
