<svg width="324" height="131" viewBox="0 0 324 131" fill="none" xmlns="http://www.w3.org/2000/svg">
<path d="M149.259 27.1547C193.73 12.6529 235.378 3.82635 266.756 1.27355C282.449 -0.00313195 295.544 0.29254 305.132 2.2165C314.764 4.14969 320.657 7.68402 322.294 12.7053C323.932 17.7267 321.255 24.0553 314.614 31.2954C308.004 38.5011 297.6 46.4599 284.171 54.6796C257.32 71.1149 218.475 88.5366 174.004 103.038C129.533 117.54 87.8862 126.366 56.5083 128.919C40.8153 130.196 27.7189 129.901 18.1318 127.977C8.49918 126.043 2.6072 122.509 0.96979 117.487C-0.667561 112.466 2.00805 106.138 8.6493 98.8977C15.2592 91.6918 25.664 83.733 39.0929 75.5132C65.9438 59.0779 104.788 41.6564 149.259 27.1547Z" stroke="#C94D17"/>
</svg>
